<?xml version="1.0" encoding="utf-8"?>
<!-- Generator: Adobe Illustrator 22.1.0, SVG Export Plug-In . SVG Version: 6.00 Build 0)  -->
<svg version="1.1" xmlns="http://www.w3.org/2000/svg" xmlns:xlink="http://www.w3.org/1999/xlink" x="0px" y="0px"
	 viewBox="0 0 1000 1000" style="enable-background:new 0 0 1000 1000;" xml:space="preserve">
<style type="text/css">
	.st0{fill:#263238;}
	.st1{display:none;}
	.st2{display:inline;fill:#37474F;}
	.st3{fill:#37474F;}
	.st4{fill:#FBC02D;}
</style>
<g id="Layer_1">
	<rect class="st0" width="1000" height="1000"/>
</g>
<g id="Screensaver" class="st1">
	<path class="st2" d="M686.1,74.6H313.9c-44,0-79.8,35.7-79.8,79.8v691.3c0,44,35.7,79.8,79.8,79.8h372.2c44,0,79.8-35.7,79.8-79.8
		V154.4C765.9,110.3,730.1,74.6,686.1,74.6z M579.8,825.7c0,11-9,19.9-19.9,19.9H440.2c-11,0-19.9-9-19.9-19.9v-13.3
		c0-11,9-19.9,19.9-19.9h119.6c11,0,19.9,9,19.9,19.9V825.7z"/>
</g>
<g id="Widget" class="st1">
	<path class="st2" d="M792.5,74.6H207.5c-44,0-79.8,35.7-79.8,79.8v691.3c0,44,35.7,79.8,79.8,79.8h584.9c44,0,79.8-35.7,79.8-79.8
		V154.4C872.2,110.3,836.5,74.6,792.5,74.6z M500,872.2c-29.4,0-53.2-23.8-53.2-53.2s23.8-53.2,53.2-53.2s53.2,23.8,53.2,53.2
		S529.4,872.2,500,872.2z"/>
</g>
<g id="Watchface">
	<path class="st3" d="M287.3,872.2c0,29.4,23.8,53.2,53.2,53.2h319c29.4,0,53.2-23.8,53.2-53.2v-26.6H287.3V872.2z M712.7,127.8
		c0-29.4-23.8-53.2-53.2-53.2h-319c-29.4,0-53.2,23.8-53.2,53.2v26.6h425.4V127.8z M712.7,207.5H287.3
		c-58.7,0-106.3,47.6-106.3,106.3v372.2c0,58.7,47.6,106.3,106.3,106.3h425.4c58.7,0,106.3-47.6,106.3-106.3V313.9
		C819,255.2,771.4,207.5,712.7,207.5z"/>
</g>
<g id="Layer_5">
	<path class="st0" d="M717.1,535.6l-33.3-160.2c-4.1-16.6-15-30.7-29.9-38.9c-14.9-8.2-32.6-9.8-48.7-4.4l-17.4,5.8
		c-3.2,1.1-4.9,4.5-3.9,7.7l3.9,11.6c1.1,3.2,4.5,4.9,7.7,3.9L611,356c10-3.3,21.2-3.3,30.5,1.6c9.4,4.9,16,13.3,18.5,23.6
		l23.2,107.5c-18.2-15.6-41.5-25.3-67.3-25.3c-51.1,0-93.3,36.9-102,85.5h-28.1c-8.7-48.6-50.9-85.5-102-85.5
		c-25.8,0-49.1,9.8-67.3,25.3L340,381.2c2.6-10.3,9.2-18.7,18.5-23.6c9.3-4.9,20.5-5,30.5-1.6l15.5,5.2c3.2,1.1,6.7-0.7,7.7-3.9
		l3.9-11.6c1.1-3.2-0.7-6.7-3.9-7.7l-17.4-5.8c-16.1-5.4-33.8-3.8-48.7,4.4c-14.9,8.2-25.7,22.3-29.9,38.9l-33.3,160.2
		c-1.7,8.4-2.7,16.9-2.8,25.5v6.1c0,57.3,46.5,103.8,103.8,103.8c55.2,0,100-43.3,103.2-97.7h25.7c3.2,54.4,48,97.7,103.2,97.7
		c57.3,0,103.8-46.5,103.8-103.8v-6.1C719.8,552.5,718.8,544,717.1,535.6z M384,646.6c-43.8,0-79.4-35.6-79.4-79.4
		s35.6-79.4,79.4-79.4s79.4,35.6,79.4,79.4S427.8,646.6,384,646.6z M616,646.6c-43.8,0-79.4-35.6-79.4-79.4s35.6-79.4,79.4-79.4
		c43.8,0,79.4,35.6,79.4,79.4S659.8,646.6,616,646.6z"/>
	<path class="st4" d="M630.3,585.3l-0.9,1.3c-0.7,1.1-2.2,1.3-3.3,0.6l-12.5-8.6c-0.6-0.4-1-1.2-1-1.9v-25.9c0-1.3,1.1-2.3,2.3-2.3
		h1.6c1.3,0,2.3,1.1,2.3,2.3v23.8l10.8,7.4C630.7,582.8,631,584.2,630.3,585.3z M645.7,605.3l6.6,6.6c1.2,1.2,1.2,3.2,0,4.4
		c-1.2,1.2-3.2,1.2-4.4,0l-7-7c-7.1,5-15.8,7.9-25.1,7.9s-18-2.9-25.1-7.9l-7,7c-1.2,1.2-3.2,1.2-4.4,0s-1.2-3.2,0-4.4l6.6-6.6
		c-8.5-8-13.8-19.3-13.8-31.8c0-7.4,1.8-14.3,5-20.4c-3.1-3.8-5-8.7-5-14c0-12.1,9.8-21.9,21.9-21.9c8.8,0,16.3,5.1,19.8,12.5
		c1.4-0.1,2.8-0.1,4.2,0c3.5-7.3,11-12.5,19.8-12.5c12.1,0,21.9,9.8,21.9,21.9c0,5.3-1.9,10.2-5,14c3.2,6.1,5,13,5,20.4
		C659.5,586,654.2,597.3,645.7,605.3z M624.5,530.6c10.7,2.2,20,8.3,26.3,16.8c1.5-2.4,2.4-5.2,2.4-8.3c0-8.6-7-15.6-15.6-15.6
		C632.1,523.4,627.3,526.3,624.5,530.6z M578.2,539.1c0,3,0.9,5.9,2.4,8.3c6.3-8.5,15.6-14.6,26.3-16.8c-2.8-4.3-7.6-7.1-13.1-7.1
		C585.3,523.4,578.2,530.4,578.2,539.1z M615.7,535.9c-20.7,0-37.5,16.8-37.5,37.5s16.8,37.5,37.5,37.5s37.5-16.8,37.5-37.5
		S636.4,535.9,615.7,535.9z"/>
	<path class="st4" d="M391.6,503c-1-3.8-4.3-5.8-7.6-5.8c-3.2,0-6.5,1.9-7.6,5.8c-12.2,41.2-38.3,52.4-38.3,81.4
		c0,25.7,20.5,46.5,45.9,46.5s45.9-20.8,45.9-46.5C429.9,555.3,403.9,544.4,391.6,503z M384,622.6c-20.7,0-37.6-17.1-37.6-38.1
		c0-12.6,6-21.2,14.3-33.1c7.6-10.9,17.1-24.4,23.3-44.6c6.2,20.2,15.7,33.7,23.3,44.7c8.3,11.8,14.3,20.4,14.3,33.1
		C421.6,605.5,404.7,622.6,384,622.6z M384,605.9c-11.5,0-20.9-9.4-20.9-20.9c0-2.3-1.9-4.2-4.2-4.2c-2.3,0-4.2,1.9-4.2,4.2
		c0,16.1,13.1,29.2,29.2,29.2c2.3,0,4.2-1.9,4.2-4.2C388.1,607.7,386.3,605.9,384,605.9z"/>
</g>
</svg>
