<?xml version="1.0" encoding="utf-8"?>
<!-- Generator: Adobe Illustrator 22.1.0, SVG Export Plug-In . SVG Version: 6.00 Build 0)  -->
<svg version="1.1" id="Layer_1" xmlns="http://www.w3.org/2000/svg" xmlns:xlink="http://www.w3.org/1999/xlink" x="0px" y="0px"
	 viewBox="0 0 1000 1000" style="enable-background:new 0 0 1000 1000;" xml:space="preserve">
<style type="text/css">
	.st0{fill:#263238;}
	.st1{fill:#FFFFFF;}
</style>
<g id="Background_1_">
	<g id="Background">
		<rect class="st0" width="1000" height="1000"/>
	</g>
</g>
<g id="Phone">
	<path id="Frame" class="st1" d="M613,244H389c-26.5,0-48,21.5-48,48v416c0,26.5,21.5,48,48,48h224c26.5,0,48-21.5,48-48V292
		C661,265.5,639.5,244,613,244z M653,681.8c0,25.5-21.1,46.3-47,46.3H396c-25.9,0-47-20.7-47-46.3V298.3c0-25.5,21.1-46.3,47-46.3
		h210c25.9,0,47,20.7,47,46.3V681.8z"/>
	<path id="Screen" class="st1" d="M598.9,264H403.1c-22.1,0-40.1,18.2-40.1,40.6v369.8c0,22.4,18,40.6,40.1,40.6h195.8
		c22.1,0,40.1-18.2,40.1-40.6V304.6C639,282.2,621,264,598.9,264z M549,698.3c0,5.4-5.4,9.8-12,9.8h-72c-6.6,0-12-4.4-12-9.8v-6.5
		c0-5.4,5.4-9.8,12-9.8h72c6.6,0,12,4.4,12,9.8V698.3z M500,555c-58,0-105-47-105-105s47-105,105-105s105,47,105,105
		S558,555,500,555z"/>
	<path id="Clock" class="st1" d="M500,365.3c-46.8,0-84.7,37.9-84.7,84.7s37.9,84.7,84.7,84.7s84.7-37.9,84.7-84.7
		S546.8,365.3,500,365.3z M541.2,478.4l-8,11c-1.7,2.2-4.8,2.8-7.1,1.1l-35.9-26.1c-1.3-1-2.1-2.5-2.1-4.1v-69.5
		c0-2.8,2.3-5.1,5.1-5.1h13.5c2.8,0,5.1,2.3,5.1,5.1v60l28.3,20.6C542.4,472.9,542.9,476.1,541.2,478.4z"/>
</g>
</svg>
